<mxfile host="app.diagrams.net" modified="2023-06-06T18:52:19.378Z" agent="Mozilla/5.0 (Windows NT 10.0; Win64; x64; rv:109.0) Gecko/20100101 Firefox/113.0" etag="nOrHBraZMzUGKL_mXHhb" version="21.3.7">
  <diagram name="Страница 1" id="nMRgs3bLhtDG-8_shzr4">
    <mxGraphModel dx="1434" dy="754" grid="1" gridSize="10" guides="1" tooltips="1" connect="1" arrows="1" fold="1" page="1" pageScale="1" pageWidth="827" pageHeight="1169" math="0" shadow="0">
      <root>
        <mxCell id="0" />
        <mxCell id="1" parent="0" />
        <mxCell id="x5-sr8hhguwtfai4uZ6X-1" value="&lt;font style=&quot;font-size: 14px;&quot;&gt;Домашняя страница&lt;br&gt;&lt;/font&gt;" style="rounded=0;whiteSpace=wrap;html=1;" vertex="1" parent="1">
          <mxGeometry x="40" y="280" width="120" height="60" as="geometry" />
        </mxCell>
        <mxCell id="x5-sr8hhguwtfai4uZ6X-2" value="Типы животных" style="rounded=0;whiteSpace=wrap;html=1;" vertex="1" parent="1">
          <mxGeometry x="200" y="280" width="120" height="60" as="geometry" />
        </mxCell>
        <mxCell id="x5-sr8hhguwtfai4uZ6X-3" value="Животные" style="rounded=0;whiteSpace=wrap;html=1;" vertex="1" parent="1">
          <mxGeometry x="360" y="280" width="120" height="60" as="geometry" />
        </mxCell>
        <mxCell id="x5-sr8hhguwtfai4uZ6X-4" value="Локации" style="rounded=0;whiteSpace=wrap;html=1;" vertex="1" parent="1">
          <mxGeometry x="520" y="280" width="120" height="60" as="geometry" />
        </mxCell>
        <mxCell id="x5-sr8hhguwtfai4uZ6X-5" value="Точки перемещения" style="rounded=0;whiteSpace=wrap;html=1;" vertex="1" parent="1">
          <mxGeometry x="680" y="280" width="120" height="60" as="geometry" />
        </mxCell>
        <mxCell id="x5-sr8hhguwtfai4uZ6X-6" value="&lt;div&gt;Обратная связь&lt;/div&gt;" style="rounded=0;whiteSpace=wrap;html=1;" vertex="1" parent="1">
          <mxGeometry x="840" y="280" width="120" height="60" as="geometry" />
        </mxCell>
        <mxCell id="x5-sr8hhguwtfai4uZ6X-7" value="Справка" style="rounded=0;whiteSpace=wrap;html=1;" vertex="1" parent="1">
          <mxGeometry x="1000" y="280" width="120" height="60" as="geometry" />
        </mxCell>
        <mxCell id="x5-sr8hhguwtfai4uZ6X-8" value="Отчёт" style="rounded=0;whiteSpace=wrap;html=1;" vertex="1" parent="1">
          <mxGeometry x="1160" y="280" width="120" height="60" as="geometry" />
        </mxCell>
        <mxCell id="x5-sr8hhguwtfai4uZ6X-9" value="Форма обратной связи" style="rounded=0;whiteSpace=wrap;html=1;" vertex="1" parent="1">
          <mxGeometry x="840" y="380" width="120" height="60" as="geometry" />
        </mxCell>
        <mxCell id="x5-sr8hhguwtfai4uZ6X-10" value="&lt;div&gt;Критерии&lt;/div&gt;&lt;div&gt;Формат отчёта&lt;br&gt;&lt;/div&gt;" style="rounded=0;whiteSpace=wrap;html=1;" vertex="1" parent="1">
          <mxGeometry x="1160" y="380" width="120" height="60" as="geometry" />
        </mxCell>
        <mxCell id="x5-sr8hhguwtfai4uZ6X-12" value="" style="endArrow=none;html=1;rounded=0;exitX=1;exitY=0.5;exitDx=0;exitDy=0;entryX=0;entryY=0.5;entryDx=0;entryDy=0;" edge="1" parent="1" source="x5-sr8hhguwtfai4uZ6X-1" target="x5-sr8hhguwtfai4uZ6X-2">
          <mxGeometry width="50" height="50" relative="1" as="geometry">
            <mxPoint x="710" y="440" as="sourcePoint" />
            <mxPoint x="760" y="390" as="targetPoint" />
          </mxGeometry>
        </mxCell>
        <mxCell id="x5-sr8hhguwtfai4uZ6X-13" value="" style="endArrow=none;html=1;rounded=0;exitX=1;exitY=0.5;exitDx=0;exitDy=0;entryX=0;entryY=0.5;entryDx=0;entryDy=0;" edge="1" parent="1">
          <mxGeometry width="50" height="50" relative="1" as="geometry">
            <mxPoint x="320" y="309.5" as="sourcePoint" />
            <mxPoint x="360" y="309.5" as="targetPoint" />
          </mxGeometry>
        </mxCell>
        <mxCell id="x5-sr8hhguwtfai4uZ6X-16" value="" style="endArrow=none;html=1;rounded=0;exitX=1;exitY=0.5;exitDx=0;exitDy=0;entryX=0;entryY=0.5;entryDx=0;entryDy=0;" edge="1" parent="1">
          <mxGeometry width="50" height="50" relative="1" as="geometry">
            <mxPoint x="480" y="309.5" as="sourcePoint" />
            <mxPoint x="520" y="309.5" as="targetPoint" />
          </mxGeometry>
        </mxCell>
        <mxCell id="x5-sr8hhguwtfai4uZ6X-17" value="" style="endArrow=none;html=1;rounded=0;exitX=1;exitY=0.5;exitDx=0;exitDy=0;entryX=0;entryY=0.5;entryDx=0;entryDy=0;" edge="1" parent="1">
          <mxGeometry width="50" height="50" relative="1" as="geometry">
            <mxPoint x="640" y="309.5" as="sourcePoint" />
            <mxPoint x="680" y="309.5" as="targetPoint" />
          </mxGeometry>
        </mxCell>
        <mxCell id="x5-sr8hhguwtfai4uZ6X-18" value="" style="endArrow=none;html=1;rounded=0;exitX=1;exitY=0.5;exitDx=0;exitDy=0;entryX=0;entryY=0.5;entryDx=0;entryDy=0;" edge="1" parent="1">
          <mxGeometry width="50" height="50" relative="1" as="geometry">
            <mxPoint x="800" y="309.5" as="sourcePoint" />
            <mxPoint x="840" y="309.5" as="targetPoint" />
          </mxGeometry>
        </mxCell>
        <mxCell id="x5-sr8hhguwtfai4uZ6X-19" value="" style="endArrow=none;html=1;rounded=0;exitX=1;exitY=0.5;exitDx=0;exitDy=0;entryX=0;entryY=0.5;entryDx=0;entryDy=0;" edge="1" parent="1">
          <mxGeometry width="50" height="50" relative="1" as="geometry">
            <mxPoint x="960" y="309.5" as="sourcePoint" />
            <mxPoint x="1000" y="309.5" as="targetPoint" />
          </mxGeometry>
        </mxCell>
        <mxCell id="x5-sr8hhguwtfai4uZ6X-21" value="" style="endArrow=none;html=1;rounded=0;exitX=1;exitY=0.5;exitDx=0;exitDy=0;entryX=0;entryY=0.5;entryDx=0;entryDy=0;" edge="1" parent="1">
          <mxGeometry width="50" height="50" relative="1" as="geometry">
            <mxPoint x="1120" y="309.5" as="sourcePoint" />
            <mxPoint x="1160" y="309.5" as="targetPoint" />
          </mxGeometry>
        </mxCell>
        <mxCell id="x5-sr8hhguwtfai4uZ6X-23" value="" style="endArrow=none;html=1;rounded=0;exitX=0.5;exitY=1;exitDx=0;exitDy=0;entryX=0.5;entryY=0;entryDx=0;entryDy=0;" edge="1" parent="1" source="x5-sr8hhguwtfai4uZ6X-8" target="x5-sr8hhguwtfai4uZ6X-10">
          <mxGeometry width="50" height="50" relative="1" as="geometry">
            <mxPoint x="1130" y="319.5" as="sourcePoint" />
            <mxPoint x="1170" y="319.5" as="targetPoint" />
          </mxGeometry>
        </mxCell>
        <mxCell id="x5-sr8hhguwtfai4uZ6X-24" value="" style="endArrow=none;html=1;rounded=0;exitX=0.5;exitY=1;exitDx=0;exitDy=0;entryX=0.5;entryY=0;entryDx=0;entryDy=0;" edge="1" parent="1">
          <mxGeometry width="50" height="50" relative="1" as="geometry">
            <mxPoint x="899.5" y="340" as="sourcePoint" />
            <mxPoint x="899.5" y="380" as="targetPoint" />
          </mxGeometry>
        </mxCell>
      </root>
    </mxGraphModel>
  </diagram>
</mxfile>
